<svg xmlns="http://www.w3.org/2000/svg" viewBox="0 0 1200 250" width="1200" height="250" role="img" aria-label="Luis Gonzalo Méndez — AI / Machine Learning Engineer · Web Developer">
<title>Luis Gonzalo Méndez — AI / Machine Learning Engineer · Web Developer</title>
<defs>
  <linearGradient id="bg" x1="0" y1="0" x2="1" y2="1"><stop offset="0" stop-color="#16161e"/><stop offset="1" stop-color="#1a1b26"/></linearGradient>
  <linearGradient id="fadeR" x1="0" x2="1"><stop offset="0" stop-color="#1a1b26" stop-opacity="1"/><stop offset=".55" stop-color="#1a1b26" stop-opacity=".85"/><stop offset="1" stop-color="#1a1b26" stop-opacity="0"/></linearGradient>
  <linearGradient id="mg" x1="0" x2="1"><stop offset="0" stop-color="#fff" stop-opacity="0"/><stop offset=".45" stop-color="#fff" stop-opacity=".35"/><stop offset="1" stop-color="#fff" stop-opacity="1"/></linearGradient>
  <mask id="bm"><rect x="520" width="680" height="250" fill="url(#mg)"/></mask>
  <clipPath id="frame"><rect width="1200" height="250" rx="14"/></clipPath>
</defs>
<style>
  .rise { opacity:0; animation: rise .8s cubic-bezier(.2,.7,.2,1) forwards; }
  .scroll { animation: scroll 40s linear infinite; }
  .flick { animation: flick 3s steps(1) infinite; }
  .cur { animation: blink 1s steps(1) infinite; }
  @keyframes rise { from { opacity:0; transform: translateY(10px); } to { opacity:1; transform:none; } }
  @keyframes scroll { to { transform: translateY(-250px); } }
  @keyframes flick { 0% { fill:#73daca; opacity:.9; } 30% { fill:#3b4261; opacity:.6; } }
  @keyframes blink { 50% { opacity:0; } }
  @media (prefers-reduced-motion: reduce) { .rise { animation:none; opacity:1; } .scroll,.flick { animation:none; } }
</style>
<g clip-path="url(#frame)">
<rect width="1200" height="250" fill="url(#bg)"/>

<g mask="url(#bm)"><g font-family="'JetBrains Mono','SFMono-Regular',Consolas,'DejaVu Sans Mono',monospace" font-size="13" fill="#3b4261"><g class="scroll">
<text x="540" y="14">0</text>
<text x="540" y="32">0</text>
<text x="540" y="50">1</text>
<text x="540" y="68">1</text>
<text class="flick" style="animation-delay:2.33s" x="540" y="86">0</text>
<text x="540" y="104">0</text>
<text x="540" y="122">1</text>
<text x="540" y="140">1</text>
<text x="540" y="158">0</text>
<text x="540" y="176">0</text>
<text x="540" y="194">1</text>
<text x="540" y="212">1</text>
<text x="540" y="230">1</text>
<text x="540" y="248">0</text>
<text x="540" y="264">0</text>
<text x="540" y="282">0</text>
<text x="540" y="300">1</text>
<text x="540" y="318">1</text>
<text x="540" y="336">0</text>
<text x="540" y="354">0</text>
<text x="540" y="372">1</text>
<text x="540" y="390">1</text>
<text x="540" y="408">0</text>
<text x="540" y="426">0</text>
<text x="540" y="444">1</text>
<text x="540" y="462">1</text>
<text x="540" y="480">1</text>
<text x="540" y="498">0</text>
<text x="559" y="14">1</text>
<text x="559" y="32">1</text>
<text x="559" y="50">1</text>
<text x="559" y="68">0</text>
<text x="559" y="86">1</text>
<text x="559" y="104">0</text>
<text x="559" y="122">1</text>
<text x="559" y="140">0</text>
<text x="559" y="158">1</text>
<text x="559" y="176">0</text>
<text x="559" y="194">0</text>
<text x="559" y="212">1</text>
<text x="559" y="230">1</text>
<text x="559" y="248">0</text>
<text x="559" y="264">1</text>
<text x="559" y="282">1</text>
<text x="559" y="300">1</text>
<text x="559" y="318">0</text>
<text x="559" y="336">1</text>
<text x="559" y="354">0</text>
<text x="559" y="372">1</text>
<text x="559" y="390">0</text>
<text class="flick" style="animation-delay:0.59s" x="559" y="408">1</text>
<text x="559" y="426">0</text>
<text x="559" y="444">0</text>
<text x="559" y="462">1</text>
<text x="559" y="480">1</text>
<text x="559" y="498">0</text>
<text x="578" y="14">1</text>
<text x="578" y="32">1</text>
<text class="flick" style="animation-delay:1.25s" x="578" y="50">0</text>
<text x="578" y="68">1</text>
<text class="flick" style="animation-delay:1.85s" x="578" y="86">1</text>
<text x="578" y="104">1</text>
<text x="578" y="122">1</text>
<text x="578" y="140">0</text>
<text x="578" y="158">1</text>
<text x="578" y="176">1</text>
<text x="578" y="194">0</text>
<text x="578" y="212">1</text>
<text x="578" y="230">1</text>
<text class="flick" style="animation-delay:0.18s" x="578" y="248">1</text>
<text x="578" y="264">1</text>
<text x="578" y="282">1</text>
<text x="578" y="300">0</text>
<text x="578" y="318">1</text>
<text x="578" y="336">1</text>
<text x="578" y="354">1</text>
<text x="578" y="372">1</text>
<text x="578" y="390">0</text>
<text x="578" y="408">1</text>
<text x="578" y="426">1</text>
<text x="578" y="444">0</text>
<text x="578" y="462">1</text>
<text x="578" y="480">1</text>
<text class="flick" style="animation-delay:1.71s" x="578" y="498">1</text>
<text x="597" y="14">0</text>
<text x="597" y="32">1</text>
<text x="597" y="50">0</text>
<text x="597" y="68">1</text>
<text x="597" y="86">0</text>
<text x="597" y="104">1</text>
<text x="597" y="122">0</text>
<text x="597" y="140">1</text>
<text class="flick" style="animation-delay:2.87s" x="597" y="158">0</text>
<text x="597" y="176">0</text>
<text x="597" y="194">1</text>
<text x="597" y="212">1</text>
<text x="597" y="230">0</text>
<text x="597" y="248">1</text>
<text x="597" y="264">0</text>
<text x="597" y="282">1</text>
<text x="597" y="300">0</text>
<text x="597" y="318">1</text>
<text x="597" y="336">0</text>
<text x="597" y="354">1</text>
<text x="597" y="372">0</text>
<text x="597" y="390">1</text>
<text x="597" y="408">0</text>
<text x="597" y="426">0</text>
<text x="597" y="444">1</text>
<text x="597" y="462">1</text>
<text x="597" y="480">0</text>
<text x="597" y="498">1</text>
<text x="616" y="14">1</text>
<text x="616" y="32">1</text>
<text x="616" y="50">0</text>
<text x="616" y="68">0</text>
<text x="616" y="86">1</text>
<text x="616" y="104">1</text>
<text class="flick" style="animation-delay:2.24s" x="616" y="122">1</text>
<text x="616" y="140">0</text>
<text x="616" y="158">0</text>
<text x="616" y="176">1</text>
<text x="616" y="194">0</text>
<text x="616" y="212">0</text>
<text x="616" y="230">0</text>
<text x="616" y="248">0</text>
<text x="616" y="264">1</text>
<text x="616" y="282">1</text>
<text x="616" y="300">0</text>
<text x="616" y="318">0</text>
<text x="616" y="336">1</text>
<text x="616" y="354">1</text>
<text x="616" y="372">1</text>
<text x="616" y="390">0</text>
<text x="616" y="408">0</text>
<text x="616" y="426">1</text>
<text x="616" y="444">0</text>
<text x="616" y="462">0</text>
<text x="616" y="480">0</text>
<text x="616" y="498">0</text>
<text x="635" y="14">0</text>
<text x="635" y="32">1</text>
<text x="635" y="50">1</text>
<text class="flick" style="animation-delay:2.14s" x="635" y="68">0</text>
<text x="635" y="86">1</text>
<text x="635" y="104">0</text>
<text x="635" y="122">1</text>
<text x="635" y="140">1</text>
<text x="635" y="158">0</text>
<text x="635" y="176">1</text>
<text x="635" y="194">1</text>
<text x="635" y="212">0</text>
<text x="635" y="230">0</text>
<text x="635" y="248">0</text>
<text x="635" y="264">0</text>
<text class="flick" style="animation-delay:2.17s" x="635" y="282">1</text>
<text x="635" y="300">1</text>
<text x="635" y="318">0</text>
<text x="635" y="336">1</text>
<text x="635" y="354">0</text>
<text x="635" y="372">1</text>
<text x="635" y="390">1</text>
<text x="635" y="408">0</text>
<text x="635" y="426">1</text>
<text x="635" y="444">1</text>
<text x="635" y="462">0</text>
<text x="635" y="480">0</text>
<text x="635" y="498">0</text>
<text x="654" y="14">1</text>
<text x="654" y="32">1</text>
<text x="654" y="50">1</text>
<text x="654" y="68">1</text>
<text x="654" y="86">0</text>
<text x="654" y="104">0</text>
<text x="654" y="122">0</text>
<text x="654" y="140">1</text>
<text x="654" y="158">0</text>
<text x="654" y="176">1</text>
<text x="654" y="194">0</text>
<text x="654" y="212">1</text>
<text x="654" y="230">0</text>
<text x="654" y="248">0</text>
<text x="654" y="264">1</text>
<text x="654" y="282">1</text>
<text class="flick" style="animation-delay:0.43s" x="654" y="300">1</text>
<text x="654" y="318">1</text>
<text x="654" y="336">0</text>
<text x="654" y="354">0</text>
<text x="654" y="372">0</text>
<text x="654" y="390">1</text>
<text x="654" y="408">0</text>
<text class="flick" style="animation-delay:2.52s" x="654" y="426">1</text>
<text x="654" y="444">0</text>
<text x="654" y="462">1</text>
<text x="654" y="480">0</text>
<text x="654" y="498">0</text>
<text x="673" y="14">1</text>
<text x="673" y="32">1</text>
<text x="673" y="50">0</text>
<text x="673" y="68">0</text>
<text x="673" y="86">0</text>
<text x="673" y="104">0</text>
<text x="673" y="122">0</text>
<text x="673" y="140">0</text>
<text x="673" y="158">1</text>
<text x="673" y="176">0</text>
<text x="673" y="194">0</text>
<text x="673" y="212">0</text>
<text x="673" y="230">0</text>
<text x="673" y="248">0</text>
<text x="673" y="264">1</text>
<text x="673" y="282">1</text>
<text x="673" y="300">0</text>
<text x="673" y="318">0</text>
<text x="673" y="336">0</text>
<text x="673" y="354">0</text>
<text x="673" y="372">0</text>
<text x="673" y="390">0</text>
<text x="673" y="408">1</text>
<text x="673" y="426">0</text>
<text x="673" y="444">0</text>
<text x="673" y="462">0</text>
<text x="673" y="480">0</text>
<text x="673" y="498">0</text>
<text x="692" y="14">0</text>
<text x="692" y="32">1</text>
<text x="692" y="50">0</text>
<text x="692" y="68">0</text>
<text x="692" y="86">1</text>
<text x="692" y="104">0</text>
<text x="692" y="122">1</text>
<text x="692" y="140">1</text>
<text x="692" y="158">1</text>
<text x="692" y="176">0</text>
<text x="692" y="194">1</text>
<text x="692" y="212">0</text>
<text x="692" y="230">1</text>
<text class="flick" style="animation-delay:2.98s" x="692" y="248">1</text>
<text x="692" y="264">0</text>
<text x="692" y="282">1</text>
<text x="692" y="300">0</text>
<text x="692" y="318">0</text>
<text x="692" y="336">1</text>
<text x="692" y="354">0</text>
<text x="692" y="372">1</text>
<text x="692" y="390">1</text>
<text x="692" y="408">1</text>
<text x="692" y="426">0</text>
<text x="692" y="444">1</text>
<text x="692" y="462">0</text>
<text x="692" y="480">1</text>
<text x="692" y="498">1</text>
<text x="711" y="14">0</text>
<text x="711" y="32">0</text>
<text x="711" y="50">0</text>
<text x="711" y="68">1</text>
<text x="711" y="86">0</text>
<text class="flick" style="animation-delay:1.00s" x="711" y="104">0</text>
<text x="711" y="122">1</text>
<text x="711" y="140">0</text>
<text x="711" y="158">1</text>
<text x="711" y="176">0</text>
<text x="711" y="194">0</text>
<text x="711" y="212">0</text>
<text x="711" y="230">0</text>
<text x="711" y="248">1</text>
<text x="711" y="264">0</text>
<text x="711" y="282">0</text>
<text x="711" y="300">0</text>
<text x="711" y="318">1</text>
<text x="711" y="336">0</text>
<text x="711" y="354">0</text>
<text x="711" y="372">1</text>
<text x="711" y="390">0</text>
<text x="711" y="408">1</text>
<text x="711" y="426">0</text>
<text x="711" y="444">0</text>
<text x="711" y="462">0</text>
<text x="711" y="480">0</text>
<text x="711" y="498">1</text>
<text x="730" y="14">1</text>
<text x="730" y="32">0</text>
<text x="730" y="50">1</text>
<text x="730" y="68">0</text>
<text x="730" y="86">1</text>
<text x="730" y="104">1</text>
<text x="730" y="122">0</text>
<text x="730" y="140">1</text>
<text x="730" y="158">0</text>
<text x="730" y="176">0</text>
<text x="730" y="194">0</text>
<text x="730" y="212">1</text>
<text x="730" y="230">1</text>
<text x="730" y="248">0</text>
<text x="730" y="264">1</text>
<text x="730" y="282">0</text>
<text x="730" y="300">1</text>
<text x="730" y="318">0</text>
<text x="730" y="336">1</text>
<text x="730" y="354">1</text>
<text x="730" y="372">0</text>
<text x="730" y="390">1</text>
<text x="730" y="408">0</text>
<text x="730" y="426">0</text>
<text x="730" y="444">0</text>
<text x="730" y="462">1</text>
<text x="730" y="480">1</text>
<text x="730" y="498">0</text>
<text x="749" y="14">0</text>
<text x="749" y="32">1</text>
<text x="749" y="50">1</text>
<text x="749" y="68">0</text>
<text x="749" y="86">0</text>
<text x="749" y="104">1</text>
<text x="749" y="122">0</text>
<text x="749" y="140">0</text>
<text x="749" y="158">0</text>
<text class="flick" style="animation-delay:2.41s" x="749" y="176">0</text>
<text x="749" y="194">0</text>
<text x="749" y="212">1</text>
<text x="749" y="230">1</text>
<text x="749" y="248">0</text>
<text x="749" y="264">0</text>
<text x="749" y="282">1</text>
<text x="749" y="300">1</text>
<text x="749" y="318">0</text>
<text x="749" y="336">0</text>
<text x="749" y="354">1</text>
<text x="749" y="372">0</text>
<text x="749" y="390">0</text>
<text x="749" y="408">0</text>
<text class="flick" style="animation-delay:2.31s" x="749" y="426">0</text>
<text x="749" y="444">0</text>
<text x="749" y="462">1</text>
<text x="749" y="480">1</text>
<text x="749" y="498">0</text>
<text x="768" y="14">0</text>
<text x="768" y="32">0</text>
<text class="flick" style="animation-delay:1.02s" x="768" y="50">0</text>
<text x="768" y="68">1</text>
<text x="768" y="86">0</text>
<text x="768" y="104">1</text>
<text x="768" y="122">0</text>
<text x="768" y="140">0</text>
<text x="768" y="158">1</text>
<text class="flick" style="animation-delay:0.24s" x="768" y="176">0</text>
<text x="768" y="194">0</text>
<text x="768" y="212">0</text>
<text x="768" y="230">1</text>
<text x="768" y="248">0</text>
<text x="768" y="264">0</text>
<text x="768" y="282">0</text>
<text x="768" y="300">0</text>
<text x="768" y="318">1</text>
<text x="768" y="336">0</text>
<text x="768" y="354">1</text>
<text x="768" y="372">0</text>
<text x="768" y="390">0</text>
<text x="768" y="408">1</text>
<text x="768" y="426">0</text>
<text x="768" y="444">0</text>
<text x="768" y="462">0</text>
<text x="768" y="480">1</text>
<text x="768" y="498">0</text>
<text x="787" y="14">0</text>
<text class="flick" style="animation-delay:0.63s" x="787" y="32">1</text>
<text x="787" y="50">1</text>
<text x="787" y="68">1</text>
<text x="787" y="86">1</text>
<text x="787" y="104">0</text>
<text x="787" y="122">1</text>
<text x="787" y="140">0</text>
<text x="787" y="158">1</text>
<text x="787" y="176">1</text>
<text class="flick" style="animation-delay:0.33s" x="787" y="194">1</text>
<text x="787" y="212">1</text>
<text x="787" y="230">1</text>
<text x="787" y="248">1</text>
<text class="flick" style="animation-delay:1.34s" x="787" y="264">0</text>
<text x="787" y="282">1</text>
<text x="787" y="300">1</text>
<text x="787" y="318">1</text>
<text x="787" y="336">1</text>
<text x="787" y="354">0</text>
<text class="flick" style="animation-delay:2.90s" x="787" y="372">1</text>
<text x="787" y="390">0</text>
<text x="787" y="408">1</text>
<text x="787" y="426">1</text>
<text x="787" y="444">1</text>
<text x="787" y="462">1</text>
<text x="787" y="480">1</text>
<text x="787" y="498">1</text>
<text x="806" y="14">0</text>
<text x="806" y="32">1</text>
<text x="806" y="50">1</text>
<text class="flick" style="animation-delay:0.09s" x="806" y="68">1</text>
<text x="806" y="86">1</text>
<text x="806" y="104">1</text>
<text x="806" y="122">0</text>
<text x="806" y="140">1</text>
<text x="806" y="158">0</text>
<text x="806" y="176">1</text>
<text x="806" y="194">1</text>
<text x="806" y="212">1</text>
<text x="806" y="230">0</text>
<text x="806" y="248">0</text>
<text x="806" y="264">0</text>
<text x="806" y="282">1</text>
<text class="flick" style="animation-delay:0.91s" x="806" y="300">1</text>
<text x="806" y="318">1</text>
<text x="806" y="336">1</text>
<text x="806" y="354">1</text>
<text x="806" y="372">0</text>
<text x="806" y="390">1</text>
<text x="806" y="408">0</text>
<text x="806" y="426">1</text>
<text x="806" y="444">1</text>
<text x="806" y="462">1</text>
<text x="806" y="480">0</text>
<text x="806" y="498">0</text>
<text x="825" y="14">1</text>
<text x="825" y="32">1</text>
<text x="825" y="50">0</text>
<text x="825" y="68">1</text>
<text x="825" y="86">1</text>
<text x="825" y="104">1</text>
<text x="825" y="122">0</text>
<text x="825" y="140">1</text>
<text x="825" y="158">1</text>
<text x="825" y="176">1</text>
<text x="825" y="194">1</text>
<text x="825" y="212">0</text>
<text x="825" y="230">1</text>
<text x="825" y="248">1</text>
<text x="825" y="264">1</text>
<text x="825" y="282">1</text>
<text x="825" y="300">0</text>
<text class="flick" style="animation-delay:0.58s" x="825" y="318">1</text>
<text x="825" y="336">1</text>
<text x="825" y="354">1</text>
<text x="825" y="372">0</text>
<text x="825" y="390">1</text>
<text x="825" y="408">1</text>
<text x="825" y="426">1</text>
<text x="825" y="444">1</text>
<text x="825" y="462">0</text>
<text x="825" y="480">1</text>
<text x="825" y="498">1</text>
<text x="844" y="14">0</text>
<text x="844" y="32">0</text>
<text class="flick" style="animation-delay:2.90s" x="844" y="50">0</text>
<text x="844" y="68">0</text>
<text x="844" y="86">1</text>
<text x="844" y="104">0</text>
<text x="844" y="122">0</text>
<text x="844" y="140">1</text>
<text x="844" y="158">1</text>
<text x="844" y="176">0</text>
<text x="844" y="194">1</text>
<text x="844" y="212">0</text>
<text x="844" y="230">0</text>
<text x="844" y="248">0</text>
<text x="844" y="264">0</text>
<text x="844" y="282">0</text>
<text x="844" y="300">0</text>
<text x="844" y="318">0</text>
<text x="844" y="336">1</text>
<text x="844" y="354">0</text>
<text x="844" y="372">0</text>
<text x="844" y="390">1</text>
<text x="844" y="408">1</text>
<text x="844" y="426">0</text>
<text x="844" y="444">1</text>
<text x="844" y="462">0</text>
<text x="844" y="480">0</text>
<text x="844" y="498">0</text>
<text x="863" y="14">1</text>
<text x="863" y="32">1</text>
<text x="863" y="50">0</text>
<text x="863" y="68">0</text>
<text x="863" y="86">0</text>
<text x="863" y="104">1</text>
<text x="863" y="122">0</text>
<text x="863" y="140">1</text>
<text x="863" y="158">0</text>
<text x="863" y="176">1</text>
<text x="863" y="194">1</text>
<text x="863" y="212">0</text>
<text x="863" y="230">1</text>
<text x="863" y="248">0</text>
<text x="863" y="264">1</text>
<text x="863" y="282">1</text>
<text x="863" y="300">0</text>
<text class="flick" style="animation-delay:2.87s" x="863" y="318">0</text>
<text class="flick" style="animation-delay:2.68s" x="863" y="336">0</text>
<text class="flick" style="animation-delay:0.45s" x="863" y="354">1</text>
<text x="863" y="372">0</text>
<text x="863" y="390">1</text>
<text x="863" y="408">0</text>
<text x="863" y="426">1</text>
<text x="863" y="444">1</text>
<text x="863" y="462">0</text>
<text x="863" y="480">1</text>
<text x="863" y="498">0</text>
<text x="882" y="14">0</text>
<text x="882" y="32">1</text>
<text x="882" y="50">0</text>
<text x="882" y="68">0</text>
<text x="882" y="86">1</text>
<text x="882" y="104">1</text>
<text x="882" y="122">1</text>
<text x="882" y="140">1</text>
<text x="882" y="158">0</text>
<text x="882" y="176">0</text>
<text x="882" y="194">0</text>
<text x="882" y="212">1</text>
<text x="882" y="230">1</text>
<text x="882" y="248">1</text>
<text x="882" y="264">0</text>
<text x="882" y="282">1</text>
<text x="882" y="300">0</text>
<text class="flick" style="animation-delay:0.39s" x="882" y="318">0</text>
<text x="882" y="336">1</text>
<text x="882" y="354">1</text>
<text x="882" y="372">1</text>
<text x="882" y="390">1</text>
<text x="882" y="408">0</text>
<text x="882" y="426">0</text>
<text x="882" y="444">0</text>
<text x="882" y="462">1</text>
<text x="882" y="480">1</text>
<text x="882" y="498">1</text>
<text x="901" y="14">0</text>
<text x="901" y="32">1</text>
<text x="901" y="50">0</text>
<text x="901" y="68">0</text>
<text class="flick" style="animation-delay:0.11s" x="901" y="86">0</text>
<text x="901" y="104">1</text>
<text x="901" y="122">1</text>
<text x="901" y="140">1</text>
<text x="901" y="158">0</text>
<text x="901" y="176">0</text>
<text x="901" y="194">1</text>
<text x="901" y="212">1</text>
<text x="901" y="230">1</text>
<text x="901" y="248">0</text>
<text x="901" y="264">0</text>
<text x="901" y="282">1</text>
<text class="flick" style="animation-delay:0.14s" x="901" y="300">0</text>
<text x="901" y="318">0</text>
<text x="901" y="336">0</text>
<text x="901" y="354">1</text>
<text x="901" y="372">1</text>
<text x="901" y="390">1</text>
<text x="901" y="408">0</text>
<text x="901" y="426">0</text>
<text x="901" y="444">1</text>
<text x="901" y="462">1</text>
<text x="901" y="480">1</text>
<text x="901" y="498">0</text>
<text x="920" y="14">1</text>
<text x="920" y="32">0</text>
<text x="920" y="50">0</text>
<text x="920" y="68">0</text>
<text x="920" y="86">0</text>
<text x="920" y="104">1</text>
<text x="920" y="122">1</text>
<text x="920" y="140">1</text>
<text x="920" y="158">1</text>
<text x="920" y="176">1</text>
<text x="920" y="194">1</text>
<text x="920" y="212">1</text>
<text x="920" y="230">1</text>
<text x="920" y="248">0</text>
<text x="920" y="264">1</text>
<text x="920" y="282">0</text>
<text x="920" y="300">0</text>
<text class="flick" style="animation-delay:1.46s" x="920" y="318">0</text>
<text x="920" y="336">0</text>
<text x="920" y="354">1</text>
<text x="920" y="372">1</text>
<text x="920" y="390">1</text>
<text x="920" y="408">1</text>
<text x="920" y="426">1</text>
<text x="920" y="444">1</text>
<text x="920" y="462">1</text>
<text x="920" y="480">1</text>
<text x="920" y="498">0</text>
<text x="939" y="14">0</text>
<text x="939" y="32">1</text>
<text x="939" y="50">1</text>
<text x="939" y="68">1</text>
<text x="939" y="86">1</text>
<text x="939" y="104">0</text>
<text x="939" y="122">0</text>
<text x="939" y="140">1</text>
<text x="939" y="158">1</text>
<text x="939" y="176">1</text>
<text x="939" y="194">0</text>
<text x="939" y="212">1</text>
<text x="939" y="230">0</text>
<text x="939" y="248">0</text>
<text x="939" y="264">0</text>
<text x="939" y="282">1</text>
<text x="939" y="300">1</text>
<text x="939" y="318">1</text>
<text x="939" y="336">1</text>
<text x="939" y="354">0</text>
<text x="939" y="372">0</text>
<text x="939" y="390">1</text>
<text x="939" y="408">1</text>
<text class="flick" style="animation-delay:1.18s" x="939" y="426">1</text>
<text x="939" y="444">0</text>
<text x="939" y="462">1</text>
<text x="939" y="480">0</text>
<text x="939" y="498">0</text>
<text x="958" y="14">0</text>
<text x="958" y="32">0</text>
<text x="958" y="50">0</text>
<text x="958" y="68">0</text>
<text x="958" y="86">0</text>
<text x="958" y="104">1</text>
<text class="flick" style="animation-delay:1.11s" x="958" y="122">0</text>
<text x="958" y="140">1</text>
<text x="958" y="158">1</text>
<text x="958" y="176">0</text>
<text x="958" y="194">0</text>
<text x="958" y="212">1</text>
<text x="958" y="230">0</text>
<text x="958" y="248">0</text>
<text x="958" y="264">0</text>
<text x="958" y="282">0</text>
<text x="958" y="300">0</text>
<text x="958" y="318">0</text>
<text x="958" y="336">0</text>
<text x="958" y="354">1</text>
<text x="958" y="372">0</text>
<text x="958" y="390">1</text>
<text x="958" y="408">1</text>
<text x="958" y="426">0</text>
<text x="958" y="444">0</text>
<text x="958" y="462">1</text>
<text x="958" y="480">0</text>
<text x="958" y="498">0</text>
<text x="977" y="14">0</text>
<text x="977" y="32">1</text>
<text x="977" y="50">0</text>
<text x="977" y="68">1</text>
<text x="977" y="86">1</text>
<text x="977" y="104">0</text>
<text x="977" y="122">0</text>
<text x="977" y="140">0</text>
<text x="977" y="158">0</text>
<text x="977" y="176">1</text>
<text x="977" y="194">0</text>
<text x="977" y="212">0</text>
<text x="977" y="230">0</text>
<text x="977" y="248">0</text>
<text x="977" y="264">0</text>
<text x="977" y="282">1</text>
<text x="977" y="300">0</text>
<text x="977" y="318">1</text>
<text x="977" y="336">1</text>
<text x="977" y="354">0</text>
<text x="977" y="372">0</text>
<text x="977" y="390">0</text>
<text x="977" y="408">0</text>
<text x="977" y="426">1</text>
<text x="977" y="444">0</text>
<text x="977" y="462">0</text>
<text x="977" y="480">0</text>
<text x="977" y="498">0</text>
<text x="996" y="14">0</text>
<text x="996" y="32">1</text>
<text x="996" y="50">1</text>
<text x="996" y="68">1</text>
<text x="996" y="86">1</text>
<text x="996" y="104">0</text>
<text x="996" y="122">1</text>
<text x="996" y="140">1</text>
<text x="996" y="158">0</text>
<text x="996" y="176">1</text>
<text x="996" y="194">0</text>
<text x="996" y="212">0</text>
<text x="996" y="230">1</text>
<text x="996" y="248">1</text>
<text class="flick" style="animation-delay:1.12s" x="996" y="264">0</text>
<text x="996" y="282">1</text>
<text x="996" y="300">1</text>
<text x="996" y="318">1</text>
<text x="996" y="336">1</text>
<text x="996" y="354">0</text>
<text x="996" y="372">1</text>
<text x="996" y="390">1</text>
<text class="flick" style="animation-delay:0.19s" x="996" y="408">0</text>
<text class="flick" style="animation-delay:2.66s" x="996" y="426">1</text>
<text x="996" y="444">0</text>
<text x="996" y="462">0</text>
<text x="996" y="480">1</text>
<text class="flick" style="animation-delay:2.20s" x="996" y="498">1</text>
<text x="1015" y="14">1</text>
<text x="1015" y="32">1</text>
<text x="1015" y="50">1</text>
<text x="1015" y="68">0</text>
<text x="1015" y="86">1</text>
<text x="1015" y="104">1</text>
<text x="1015" y="122">0</text>
<text x="1015" y="140">1</text>
<text x="1015" y="158">0</text>
<text x="1015" y="176">1</text>
<text x="1015" y="194">0</text>
<text x="1015" y="212">1</text>
<text x="1015" y="230">1</text>
<text x="1015" y="248">0</text>
<text x="1015" y="264">1</text>
<text x="1015" y="282">1</text>
<text x="1015" y="300">1</text>
<text x="1015" y="318">0</text>
<text x="1015" y="336">1</text>
<text x="1015" y="354">1</text>
<text x="1015" y="372">0</text>
<text x="1015" y="390">1</text>
<text x="1015" y="408">0</text>
<text x="1015" y="426">1</text>
<text x="1015" y="444">0</text>
<text x="1015" y="462">1</text>
<text x="1015" y="480">1</text>
<text x="1015" y="498">0</text>
<text x="1034" y="14">1</text>
<text x="1034" y="32">1</text>
<text x="1034" y="50">0</text>
<text x="1034" y="68">1</text>
<text x="1034" y="86">0</text>
<text x="1034" y="104">1</text>
<text x="1034" y="122">0</text>
<text x="1034" y="140">0</text>
<text x="1034" y="158">0</text>
<text x="1034" y="176">0</text>
<text x="1034" y="194">0</text>
<text x="1034" y="212">0</text>
<text x="1034" y="230">0</text>
<text x="1034" y="248">1</text>
<text x="1034" y="264">1</text>
<text x="1034" y="282">1</text>
<text x="1034" y="300">0</text>
<text x="1034" y="318">1</text>
<text x="1034" y="336">0</text>
<text x="1034" y="354">1</text>
<text x="1034" y="372">0</text>
<text x="1034" y="390">0</text>
<text x="1034" y="408">0</text>
<text x="1034" y="426">0</text>
<text x="1034" y="444">0</text>
<text x="1034" y="462">0</text>
<text x="1034" y="480">0</text>
<text x="1034" y="498">1</text>
<text x="1053" y="14">1</text>
<text x="1053" y="32">0</text>
<text x="1053" y="50">1</text>
<text x="1053" y="68">0</text>
<text x="1053" y="86">0</text>
<text x="1053" y="104">1</text>
<text x="1053" y="122">1</text>
<text x="1053" y="140">0</text>
<text x="1053" y="158">1</text>
<text x="1053" y="176">0</text>
<text x="1053" y="194">0</text>
<text x="1053" y="212">1</text>
<text x="1053" y="230">1</text>
<text x="1053" y="248">1</text>
<text x="1053" y="264">1</text>
<text x="1053" y="282">0</text>
<text x="1053" y="300">1</text>
<text x="1053" y="318">0</text>
<text x="1053" y="336">0</text>
<text x="1053" y="354">1</text>
<text x="1053" y="372">1</text>
<text x="1053" y="390">0</text>
<text x="1053" y="408">1</text>
<text x="1053" y="426">0</text>
<text x="1053" y="444">0</text>
<text class="flick" style="animation-delay:0.53s" x="1053" y="462">1</text>
<text x="1053" y="480">1</text>
<text x="1053" y="498">1</text>
<text x="1072" y="14">1</text>
<text x="1072" y="32">0</text>
<text x="1072" y="50">1</text>
<text x="1072" y="68">1</text>
<text x="1072" y="86">1</text>
<text x="1072" y="104">1</text>
<text x="1072" y="122">1</text>
<text x="1072" y="140">0</text>
<text x="1072" y="158">0</text>
<text x="1072" y="176">1</text>
<text x="1072" y="194">1</text>
<text x="1072" y="212">0</text>
<text x="1072" y="230">1</text>
<text x="1072" y="248">0</text>
<text x="1072" y="264">1</text>
<text x="1072" y="282">0</text>
<text x="1072" y="300">1</text>
<text x="1072" y="318">1</text>
<text x="1072" y="336">1</text>
<text x="1072" y="354">1</text>
<text x="1072" y="372">1</text>
<text x="1072" y="390">0</text>
<text x="1072" y="408">0</text>
<text x="1072" y="426">1</text>
<text x="1072" y="444">1</text>
<text x="1072" y="462">0</text>
<text x="1072" y="480">1</text>
<text x="1072" y="498">0</text>
<text x="1091" y="14">1</text>
<text x="1091" y="32">0</text>
<text x="1091" y="50">1</text>
<text x="1091" y="68">0</text>
<text x="1091" y="86">1</text>
<text x="1091" y="104">0</text>
<text x="1091" y="122">1</text>
<text x="1091" y="140">1</text>
<text x="1091" y="158">0</text>
<text x="1091" y="176">1</text>
<text x="1091" y="194">1</text>
<text x="1091" y="212">0</text>
<text x="1091" y="230">1</text>
<text x="1091" y="248">1</text>
<text x="1091" y="264">1</text>
<text x="1091" y="282">0</text>
<text x="1091" y="300">1</text>
<text x="1091" y="318">0</text>
<text x="1091" y="336">1</text>
<text x="1091" y="354">0</text>
<text x="1091" y="372">1</text>
<text x="1091" y="390">1</text>
<text x="1091" y="408">0</text>
<text x="1091" y="426">1</text>
<text x="1091" y="444">1</text>
<text x="1091" y="462">0</text>
<text x="1091" y="480">1</text>
<text x="1091" y="498">1</text>
<text x="1110" y="14">1</text>
<text x="1110" y="32">1</text>
<text x="1110" y="50">0</text>
<text x="1110" y="68">0</text>
<text x="1110" y="86">0</text>
<text x="1110" y="104">0</text>
<text x="1110" y="122">0</text>
<text x="1110" y="140">1</text>
<text x="1110" y="158">1</text>
<text x="1110" y="176">0</text>
<text x="1110" y="194">1</text>
<text x="1110" y="212">0</text>
<text x="1110" y="230">0</text>
<text x="1110" y="248">0</text>
<text x="1110" y="264">1</text>
<text x="1110" y="282">1</text>
<text x="1110" y="300">0</text>
<text x="1110" y="318">0</text>
<text x="1110" y="336">0</text>
<text x="1110" y="354">0</text>
<text x="1110" y="372">0</text>
<text x="1110" y="390">1</text>
<text x="1110" y="408">1</text>
<text x="1110" y="426">0</text>
<text x="1110" y="444">1</text>
<text x="1110" y="462">0</text>
<text x="1110" y="480">0</text>
<text x="1110" y="498">0</text>
<text x="1129" y="14">0</text>
<text x="1129" y="32">0</text>
<text x="1129" y="50">0</text>
<text x="1129" y="68">0</text>
<text x="1129" y="86">0</text>
<text x="1129" y="104">1</text>
<text x="1129" y="122">1</text>
<text x="1129" y="140">1</text>
<text x="1129" y="158">0</text>
<text x="1129" y="176">0</text>
<text x="1129" y="194">1</text>
<text x="1129" y="212">0</text>
<text x="1129" y="230">1</text>
<text x="1129" y="248">0</text>
<text x="1129" y="264">0</text>
<text x="1129" y="282">0</text>
<text class="flick" style="animation-delay:1.01s" x="1129" y="300">0</text>
<text x="1129" y="318">0</text>
<text x="1129" y="336">0</text>
<text x="1129" y="354">1</text>
<text x="1129" y="372">1</text>
<text x="1129" y="390">1</text>
<text class="flick" style="animation-delay:1.61s" x="1129" y="408">0</text>
<text x="1129" y="426">0</text>
<text x="1129" y="444">1</text>
<text x="1129" y="462">0</text>
<text x="1129" y="480">1</text>
<text x="1129" y="498">0</text>
<text class="flick" style="animation-delay:0.08s" x="1148" y="14">0</text>
<text x="1148" y="32">1</text>
<text x="1148" y="50">0</text>
<text x="1148" y="68">0</text>
<text x="1148" y="86">0</text>
<text x="1148" y="104">1</text>
<text x="1148" y="122">1</text>
<text x="1148" y="140">0</text>
<text x="1148" y="158">1</text>
<text x="1148" y="176">1</text>
<text x="1148" y="194">0</text>
<text x="1148" y="212">0</text>
<text x="1148" y="230">1</text>
<text x="1148" y="248">0</text>
<text x="1148" y="264">0</text>
<text x="1148" y="282">1</text>
<text x="1148" y="300">0</text>
<text x="1148" y="318">0</text>
<text x="1148" y="336">0</text>
<text x="1148" y="354">1</text>
<text x="1148" y="372">1</text>
<text x="1148" y="390">0</text>
<text x="1148" y="408">1</text>
<text x="1148" y="426">1</text>
<text x="1148" y="444">0</text>
<text x="1148" y="462">0</text>
<text x="1148" y="480">1</text>
<text x="1148" y="498">0</text>
<text x="1167" y="14">0</text>
<text x="1167" y="32">1</text>
<text x="1167" y="50">0</text>
<text x="1167" y="68">0</text>
<text x="1167" y="86">0</text>
<text x="1167" y="104">1</text>
<text x="1167" y="122">0</text>
<text x="1167" y="140">0</text>
<text x="1167" y="158">1</text>
<text x="1167" y="176">0</text>
<text x="1167" y="194">0</text>
<text x="1167" y="212">1</text>
<text x="1167" y="230">1</text>
<text x="1167" y="248">1</text>
<text x="1167" y="264">0</text>
<text x="1167" y="282">1</text>
<text x="1167" y="300">0</text>
<text x="1167" y="318">0</text>
<text x="1167" y="336">0</text>
<text x="1167" y="354">1</text>
<text x="1167" y="372">0</text>
<text x="1167" y="390">0</text>
<text x="1167" y="408">1</text>
<text x="1167" y="426">0</text>
<text x="1167" y="444">0</text>
<text x="1167" y="462">1</text>
<text x="1167" y="480">1</text>
<text x="1167" y="498">1</text>
</g></g></g>
<rect x=".5" y=".5" width="1199" height="249" rx="14" fill="none" stroke="#2f334d"/>
<g font-family="'JetBrains Mono','SFMono-Regular',Consolas,'DejaVu Sans Mono',monospace">
  <text class="rise" style="animation-delay:.1s" x="64" y="70" font-size="16"><tspan fill="#9ece6a">l-gonzo@github</tspan><tspan fill="#8b93b8">:</tspan><tspan fill="#7aa2f7">~</tspan><tspan fill="#8b93b8">$ whoami</tspan></text>
  <text class="rise" style="animation-delay:.35s" x="62" y="126" font-size="46" font-weight="700" fill="#c0caf5">Luis Gonzalo Méndez</text>
  <text class="rise" style="animation-delay:.6s" x="64" y="176" font-size="26" fill="#73daca">&gt;</text>

  <clipPath id="r0"><rect x="96" y="150" height="36" width="0"><animate attributeName="width" dur="11.22s" begin="1s" repeatCount="indefinite" calcMode="discrete" keyTimes="0.00000;0.00490;0.00980;0.01471;0.01961;0.02451;0.02941;0.03431;0.03922;0.04412;0.04902;0.05392;0.05882;0.06373;0.06863;0.07353;0.07843;0.08333;0.08824;0.09314;0.09804;0.10294;0.10784;0.11275;0.11765;0.12255;0.12745;0.13235;0.13725;0.14216;0.14706;0.15196;0.15686;0.16176;0.16667;0.17157;0.17647;0.18137;0.18627;0.19118;0.19608;0.20098;0.20588;0.21078;0.21569;0.22059;0.22549;0.23039;0.23529;0.24020;0.24510;0.25000;0.48396;0.48619;0.48841;0.49064;0.49287;0.49510;0.49733;0.49955;0.50178;0.50401;0.50624;0.50847;0.51070;0.51292;0.51515;0.51738;0.51961;0.52184;0.52406;0.52629;0.52852;0.53075;0.53298;0.53520;0.53743;0.53966;0.54189;0.54412;0.54635;0.54857;0.55080;0.55303;0.55526;0.55749;0.55971;0.56194;0.56417;0.56640;0.56863;0.57086;0.57308;0.57531;0.57754;0.57977;0.58200;0.58422;0.58645;0.58868;0.59091;0.59314;0.59537;0.63547;0.64037;0.64528;0.65018;0.65508;0.65998;0.66488;0.66979;0.67469;0.67959;0.68449;0.68939;0.69430;0.69920;0.93316;0.93538;0.93761;0.93984;0.94207;0.94430;0.94652;0.94875;0.95098;0.95321;0.95544;0.95766;0.95989;1" values="0.0;15.6;31.2;46.8;62.4;78.0;93.6;109.2;124.8;140.4;156.0;171.6;187.2;202.8;218.4;234.0;249.6;265.2;280.8;296.4;312.0;327.6;343.2;358.8;374.4;390.0;405.6;421.2;436.8;452.4;468.0;483.6;499.2;514.8;530.4;546.0;561.6;577.2;592.8;608.4;624.0;639.6;655.2;670.8;686.4;702.0;717.6;733.2;748.8;764.4;780.0;795.6;780.0;764.4;748.8;733.2;717.6;702.0;686.4;670.8;655.2;639.6;624.0;608.4;592.8;577.2;561.6;546.0;530.4;514.8;499.2;483.6;468.0;452.4;436.8;421.2;405.6;390.0;374.4;358.8;343.2;327.6;312.0;296.4;280.8;265.2;249.6;234.0;218.4;202.8;187.2;171.6;156.0;140.4;124.8;109.2;93.6;78.0;62.4;46.8;31.2;15.6;0.0;0.0;0.0;0.0;0.0;0.0;0.0;0.0;0.0;0.0;0.0;0.0;0.0;0.0;0.0;0.0;0.0;0.0;0.0;0.0;0.0;0.0;0.0;0.0;0.0;0.0;0.0;0.0;0.0"/></rect></clipPath>
  <text x="96" y="176" font-size="26" fill="#c0caf5" textLength="795.6" lengthAdjust="spacing" clip-path="url(#r0)">Artificial Intelligence / Machine Learning Engineer</text>
  <clipPath id="r1"><rect x="96" y="150" height="36" width="0"><animate attributeName="width" dur="11.22s" begin="1s" repeatCount="indefinite" calcMode="discrete" keyTimes="0.00000;0.00490;0.00980;0.01471;0.01961;0.02451;0.02941;0.03431;0.03922;0.04412;0.04902;0.05392;0.05882;0.06373;0.06863;0.07353;0.07843;0.08333;0.08824;0.09314;0.09804;0.10294;0.10784;0.11275;0.11765;0.12255;0.12745;0.13235;0.13725;0.14216;0.14706;0.15196;0.15686;0.16176;0.16667;0.17157;0.17647;0.18137;0.18627;0.19118;0.19608;0.20098;0.20588;0.21078;0.21569;0.22059;0.22549;0.23039;0.23529;0.24020;0.24510;0.25000;0.48396;0.48619;0.48841;0.49064;0.49287;0.49510;0.49733;0.49955;0.50178;0.50401;0.50624;0.50847;0.51070;0.51292;0.51515;0.51738;0.51961;0.52184;0.52406;0.52629;0.52852;0.53075;0.53298;0.53520;0.53743;0.53966;0.54189;0.54412;0.54635;0.54857;0.55080;0.55303;0.55526;0.55749;0.55971;0.56194;0.56417;0.56640;0.56863;0.57086;0.57308;0.57531;0.57754;0.57977;0.58200;0.58422;0.58645;0.58868;0.59091;0.59314;0.59537;0.63547;0.64037;0.64528;0.65018;0.65508;0.65998;0.66488;0.66979;0.67469;0.67959;0.68449;0.68939;0.69430;0.69920;0.93316;0.93538;0.93761;0.93984;0.94207;0.94430;0.94652;0.94875;0.95098;0.95321;0.95544;0.95766;0.95989;1" values="0.0;0.0;0.0;0.0;0.0;0.0;0.0;0.0;0.0;0.0;0.0;0.0;0.0;0.0;0.0;0.0;0.0;0.0;0.0;0.0;0.0;0.0;0.0;0.0;0.0;0.0;0.0;0.0;0.0;0.0;0.0;0.0;0.0;0.0;0.0;0.0;0.0;0.0;0.0;0.0;0.0;0.0;0.0;0.0;0.0;0.0;0.0;0.0;0.0;0.0;0.0;0.0;0.0;0.0;0.0;0.0;0.0;0.0;0.0;0.0;0.0;0.0;0.0;0.0;0.0;0.0;0.0;0.0;0.0;0.0;0.0;0.0;0.0;0.0;0.0;0.0;0.0;0.0;0.0;0.0;0.0;0.0;0.0;0.0;0.0;0.0;0.0;0.0;0.0;0.0;0.0;0.0;0.0;0.0;0.0;0.0;0.0;0.0;0.0;0.0;0.0;0.0;0.0;0.0;15.6;31.2;46.8;62.4;78.0;93.6;109.2;124.8;140.4;156.0;171.6;187.2;202.8;187.2;171.6;156.0;140.4;124.8;109.2;93.6;78.0;62.4;46.8;31.2;15.6;0.0;0.0"/></rect></clipPath>
  <text x="96" y="176" font-size="26" fill="#c0caf5" textLength="202.8" lengthAdjust="spacing" clip-path="url(#r1)">Web Developer</text>
  <g class="cur"><rect x="99" y="153" width="9.7" height="28" fill="#73daca"><animate attributeName="x" dur="11.22s" begin="1s" repeatCount="indefinite" calcMode="discrete" keyTimes="0.00000;0.00490;0.00980;0.01471;0.01961;0.02451;0.02941;0.03431;0.03922;0.04412;0.04902;0.05392;0.05882;0.06373;0.06863;0.07353;0.07843;0.08333;0.08824;0.09314;0.09804;0.10294;0.10784;0.11275;0.11765;0.12255;0.12745;0.13235;0.13725;0.14216;0.14706;0.15196;0.15686;0.16176;0.16667;0.17157;0.17647;0.18137;0.18627;0.19118;0.19608;0.20098;0.20588;0.21078;0.21569;0.22059;0.22549;0.23039;0.23529;0.24020;0.24510;0.25000;0.48396;0.48619;0.48841;0.49064;0.49287;0.49510;0.49733;0.49955;0.50178;0.50401;0.50624;0.50847;0.51070;0.51292;0.51515;0.51738;0.51961;0.52184;0.52406;0.52629;0.52852;0.53075;0.53298;0.53520;0.53743;0.53966;0.54189;0.54412;0.54635;0.54857;0.55080;0.55303;0.55526;0.55749;0.55971;0.56194;0.56417;0.56640;0.56863;0.57086;0.57308;0.57531;0.57754;0.57977;0.58200;0.58422;0.58645;0.58868;0.59091;0.59314;0.59537;0.63547;0.64037;0.64528;0.65018;0.65508;0.65998;0.66488;0.66979;0.67469;0.67959;0.68449;0.68939;0.69430;0.69920;0.93316;0.93538;0.93761;0.93984;0.94207;0.94430;0.94652;0.94875;0.95098;0.95321;0.95544;0.95766;0.95989;1" values="99.0;114.6;130.2;145.8;161.4;177.0;192.6;208.2;223.8;239.4;255.0;270.6;286.2;301.8;317.4;333.0;348.6;364.2;379.8;395.4;411.0;426.6;442.2;457.8;473.4;489.0;504.6;520.2;535.8;551.4;567.0;582.6;598.2;613.8;629.4;645.0;660.6;676.2;691.8;707.4;723.0;738.6;754.2;769.8;785.4;801.0;816.6;832.2;847.8;863.4;879.0;894.6;879.0;863.4;847.8;832.2;816.6;801.0;785.4;769.8;754.2;738.6;723.0;707.4;691.8;676.2;660.6;645.0;629.4;613.8;598.2;582.6;567.0;551.4;535.8;520.2;504.6;489.0;473.4;457.8;442.2;426.6;411.0;395.4;379.8;364.2;348.6;333.0;317.4;301.8;286.2;270.6;255.0;239.4;223.8;208.2;192.6;177.0;161.4;145.8;130.2;114.6;99.0;99.0;114.6;130.2;145.8;161.4;177.0;192.6;208.2;223.8;239.4;255.0;270.6;286.2;301.8;286.2;270.6;255.0;239.4;223.8;208.2;192.6;177.0;161.4;145.8;130.2;114.6;99.0;99.0"/></rect></g>
</g>
</g>
</svg>
